<svg width="256" height="256" xmlns="http://www.w3.org/2000/svg" xml:space="preserve" enable-background="new 0 0 256 256" version="1.1">
 <metadata>Svg Vector Icons : http://www.onlinewebfonts.com/icon</metadata>

 <g>
  <title>Layer 1</title>
  <g id="svg_1">
   <g id="svg_2">
    <path id="svg_3" d="m128,10c-65.2,0 -118,52.8 -118,118c0,65.2 52.8,118 118,118c65.2,0 118,-52.8 118,-118c0,-65.2 -52.8,-118 -118,-118zm-46,125.9l-0.2,0c-0.1,0 -0.2,0 -0.4,0.1l-0.9,0.3c-11.4,3.7 -19,12.5 -19.8,22.5l20.4,0l0,3.7l-24.1,0l0,-1.8c0,-12.3 8.6,-23.1 22,-27.6l0.2,-0.1c0.5,-0.2 1.1,-0.4 1.7,-0.5c0.4,-0.1 0.8,-0.2 1.2,-0.3c1.3,-0.4 1.7,-0.9 1.7,-2.1c0,-1.5 -1.7,-2.6 -2.5,-3c-0.1,0 -0.8,-0.4 -0.8,-0.4c-7.4,-3.8 -12.2,-11.8 -12.2,-20.5c0,-12.6 9.7,-22.8 21.6,-22.8c2.9,0 5.7,0.6 8.3,1.7l-1.5,3.3c-2.2,-0.9 -4.5,-1.4 -6.8,-1.4c-9.9,-0.1 -17.9,8.5 -17.9,19.1c0,7.3 4,14.1 10.2,17.3c0,0 0.6,0.3 0.8,0.4c2.9,1.6 4.5,3.8 4.5,6.3c0,2.8 -1.5,4.7 -4.4,5.6c-0.4,0 -0.8,0.1 -1.1,0.2zm97.7,36.7l-95,0l0,-1.8c0,-16.6 11.7,-31.3 29.9,-37.4l0.3,-0.1c0.7,-0.3 1.4,-0.5 2.2,-0.7c0.6,-0.2 1.2,-0.3 1.7,-0.5c2.1,-0.7 2.8,-1.6 2.8,-3.5c0,-2.4 -2.4,-4 -3.8,-4.7c-0.1,0 -1.1,-0.6 -1.1,-0.6c-10,-5.1 -16.5,-16 -16.5,-27.7c0,-17 13,-30.7 29,-30.7c16,0 29,13.8 29,30.7c0,11.9 -7.6,22.2 -14.6,26.6c-4.4,2.8 -5.1,3.8 -5.1,5.2c0,3.9 6.2,4.6 6.2,4.6l0.2,0c20.3,4.9 34.5,20.9 34.5,38.8l0,1.8l0.3,0zm23.5,-10.1l-19.1,0l0,-3.7l15.4,0c-0.8,-10 -8.4,-18.7 -19.8,-22.5l-1.1,-0.4c0,0 -0.1,0 -0.2,0l-0.2,0c-0.4,-0.1 -0.7,-0.2 -1.1,-0.3c-3,-0.9 -4.5,-2.8 -4.5,-5.6c0,-2.5 1.6,-4.7 4.4,-6.2c0.3,-0.1 0.9,-0.4 0.9,-0.4c6.2,-3.2 10.3,-10 10.3,-17.3c0,-10.6 -8,-19.2 -17.9,-19.2c-2.4,0 -4.6,0.5 -6.8,1.4l-1.5,-3.3c2.6,-1.2 5.4,-1.7 8.3,-1.7c11.9,0 21.6,10.2 21.6,22.8c0,8.7 -4.8,16.8 -12.2,20.5c0,0 -0.7,0.4 -0.9,0.5c-0.8,0.4 -2.3,1.5 -2.3,2.9c0,1.2 0.4,1.7 1.8,2.1c0.3,0.1 0.7,0.2 1.1,0.3c0.7,0.2 1.2,0.3 1.8,0.5l0.3,0.1c13.3,4.6 21.9,15.4 21.9,27.6l-0.2,1.9l0,0z" stroke="#000000" fill-opacity="0" stroke-width="10"/>
    <path id="svg_4" d="m144.5,135.6c-3.5,-0.4 -9.4,-2.6 -9.4,-8.2c0,-3.7 2.8,-5.8 6.8,-8.3c6.2,-3.9 12.9,-13 12.9,-23.6c0,-14.9 -11.4,-27.1 -25.4,-27.1s-25.4,12.2 -25.4,27.1c0,10.4 5.7,20 14.5,24.4c0,0 0.9,0.5 1.1,0.6c2.2,1.2 5.8,3.8 5.8,8c0,5.3 -4.2,6.6 -5.5,7c-0.6,0.1 -1.1,0.3 -1.6,0.4l-0.2,0c-0.2,0 -0.4,0.1 -0.6,0.1l-1.2,0.4c-16.2,5.3 -27,17.9 -27.8,32.3l0,0l87.5,0c-1,-15.2 -13.6,-28.8 -31.5,-33.1z" stroke="#000000" fill-opacity="0" stroke-width="10"/>
   </g>
  </g>
  <path d="m88.91836,96.79591c-0.5102,0 -1.02041,0 -1.53061,0c-0.5102,0 -1.17857,-0.33801 -2.55102,0.5102c-0.61378,0.37933 -0.864,1.25449 -1.53062,1.53062c-0.47137,0.19524 -0.74429,0.35379 -1.02041,1.02041c-0.19524,0.47137 -0.14944,0.65965 -0.5102,1.02041c-0.36076,0.36076 0,1.02041 0,1.53061c0,0.51021 0,0.51021 0,1.02041c0,0.51021 0,1.02041 0,1.53061c0,0.51021 0,1.02041 0,1.53062c0,0.5102 -0.3905,1.09808 0,2.04082c0.27612,0.66661 1.02041,1.53061 1.02041,2.55102c0,0 0.5102,0.51021 0.5102,1.02041c0,0.5102 0.3538,1.25449 1.02041,1.53061c0.47137,0.19525 0.24198,0.5864 0.51021,1.02041c0.59978,0.97047 1.53061,0.51021 1.53061,-0.5102c0,-0.51021 0,-1.02041 0,-2.04082c0,-0.5102 0,-1.02041 0,-2.55102c0,-0.51021 0,-0.51021 0,-1.02041c0,-0.51021 0,-1.02041 0,-1.53062c0,-0.5102 0,-1.53061 0,-2.04082c0,-0.5102 0,-1.0204 0,-1.53061c0,-0.5102 0.23409,-0.35379 0.51021,-1.02041c0.3905,-0.94273 0.14944,-1.16985 0.5102,-1.53061c0.36077,-0.36077 0.74429,-1.37421 1.02041,-2.04082c0.19525,-0.47137 0.23409,-0.864 0.5102,-1.53062c0.19524,-0.47137 -0.15686,-0.6051 0.51021,-1.53061c0.42189,-0.58533 1.16985,-1.38117 1.53061,-1.02041c0.36077,0.36077 0,1.53062 0,2.04082c0,0.5102 0,1.02041 0,1.53061c0,0.51021 0,0.51021 0,1.02041c0,0.51021 0,1.53062 0,1.53062c0,0.5102 0,1.02041 0,1.53061c0,0.51021 -0.75829,1.44069 -1.02041,2.55102c-0.11723,0.49656 0,1.53062 0,2.04082c0,0 0,0.51021 0,1.02041c0,0.51021 0,1.02041 0,1.53062c0,1.02041 0,1.53061 0,2.04082c0,1.0204 -0.11722,1.54426 0,2.04081c0.26212,1.11034 0.65965,1.16985 1.02041,1.53062c0.36076,0.36076 -0.11723,1.54426 0,2.04082c0.26212,1.11034 1.02041,1.02041 1.02041,1.53061c0,0.51021 0.74429,0.3538 1.02041,1.02041c0.3905,0.94273 0.03884,1.33536 0.51021,1.53061c0.66661,0.27612 1.02041,1.02041 1.02041,1.53062c0,0.5102 0.5102,0.5102 0.5102,0.5102c0,0 -0.43507,-0.08831 -1.02041,-0.5102c-0.92551,-0.66707 -1.25449,-1.37421 -1.53061,-2.04082c-0.19525,-0.47137 0,-1.53061 0,-3.06123c0,-0.5102 0,-1.02041 0,-1.53061c0,-1.02041 0,-1.02041 0,-2.55103c0,-0.5102 0,-0.5102 0,-1.02041c0,-0.5102 0,-1.0204 0.5102,-1.53061c0,0 0,-0.5102 0,-1.02041c0,-1.02041 0.74429,-1.3742 1.02041,-2.04082c0.19524,-0.47137 0,-1.02041 0,-1.02041c0,-0.5102 0.14944,-1.38118 0.51021,-1.02041c0.72153,0.72153 0.5102,1.53062 0.5102,2.04082c0,1.02041 0,1.53062 0.5102,3.06123c0,0 -0.11722,0.52386 0,1.02041c0.26212,1.11034 0.11972,1.60828 0.51021,2.55102c0.27612,0.66662 1.02041,0.51021 1.02041,1.53062c0,0.5102 0,1.02041 0,1.02041c0.5102,0.5102 0.31496,1.05924 0.5102,1.53061c0.27612,0.66662 1.25449,0.3538 1.53062,1.02041c0.19524,0.47137 0.35379,1.25449 1.02041,1.53061c0.47137,0.19524 0.75829,0.42028 1.02041,1.53062c0.11722,0.49655 0.52385,0.39297 1.02041,0.5102c1.11033,0.26212 1.16984,0.65964 1.53061,1.02041c0.36077,0.36077 1.16985,0.65965 1.53061,1.02041c0.36077,0.36077 0.54904,0.31496 1.02041,0.51021c0.66662,0.27612 1.02041,0.5102 1.02041,0.5102c0.51021,0.51021 1.02041,0.51021 1.53062,0.51021c0.5102,0 0.5102,0 1.02041,0c0.5102,0 1.0204,0 0.5102,0c-0.5102,0 -1.02041,0 -1.02041,0c-1.02041,0 -1.53061,0 -2.04082,0c0,0 -0.5102,0 -1.02041,0c-0.5102,0 -1.02041,0 -1.53061,0c-1.02041,0 -1.53062,0 -2.04082,0c-1.02041,0 -1.53061,-0.51021 -2.04082,-0.51021c-0.5102,0 -0.65965,-0.14944 -1.02041,-0.5102c-0.36076,-0.36076 -1.53061,-0.51021 -2.55102,-0.51021c0,0 -1.02041,0 -1.53062,0c-0.5102,0 -0.52385,0.11722 -1.0204,0c-1.11033,-0.26212 -1.16985,-1.16985 -1.53062,-1.53061c-0.72153,-0.72153 -1.02041,-0.51021 -1.02041,-0.51021c0.51021,0 1.02041,0 1.53062,0c1.02041,0 1.53061,0 1.53061,0c1.02041,0 1.54426,0.39299 2.04082,0.51021c1.11033,0.26212 1.3742,0.74429 2.04082,1.02041c0.47137,0.19524 1.02041,0.5102 1.53061,0.5102c0.51021,0 0.51021,0 1.02041,0c0.51021,0 1.02041,0 1.53061,0c0,0 0.93048,0.24809 2.04082,0.51021c0.99311,0.23444 1.53062,0 2.04082,0.5102c0,0 0.51021,0 1.02041,0c0.51021,0 1.02041,0 1.02041,0c0.51021,0 0,0.51021 -0.5102,0.51021c-1.53062,0 -2.04082,0.5102 -3.06123,0.5102c-0.51021,0 -0.51021,0 -1.02041,0c-0.51021,0 -1.02041,0 -1.53062,0.51021c0,0 -0.52385,-0.11722 -1.0204,0c-1.11033,0.2621 -1.54427,0.39297 -2.04082,0.51019c-1.11034,0.26212 -1.03406,0.39299 -1.53062,0.51021c-1.11034,0.26212 -1.53061,0.51021 -1.53061,0.51021c-0.51021,0 -1.02041,0 -1.53062,0c-0.5102,0 -0.43506,0.08832 -1.0204,0.51021c-0.92551,0.66707 -1.33537,0.54903 -1.53062,1.0204c-0.27612,0.66661 -1.05924,0.31496 -1.53061,0.51021c-0.66662,0.27612 -0.51021,1.0204 -1.02041,1.53061c-0.51021,0.51021 -1.02041,0.51021 -1.53062,1.02042c-0.5102,0.51019 -1.05924,0.82515 -1.53061,1.0204c-0.66661,0.27612 -0.5102,1.0204 -0.5102,1.53061c0,0.51021 0.58788,0.90071 1.53061,0.51021c0.66661,-0.27612 0.5102,-1.02042 0.5102,-1.02042c0.51021,-0.51019 1.48858,-0.19737 2.04082,-1.53061c0.19524,-0.47136 1.02041,-1.0204 1.53062,-1.0204c0.5102,0 0.864,-0.74429 1.53061,-1.02042c0.47137,-0.19525 0.864,-0.74428 1.53061,-1.0204c0.47137,-0.19525 1.53062,-0.51021 1.53062,-0.51021c1.02041,-0.51021 1.51696,-0.62743 1.02041,-0.51021c-1.11034,0.26212 -1.027,0.42848 -1.53062,0.51021c-1.59258,0.25844 -1.82948,-0.21133 -2.55102,0.51021c-0.36077,0.36078 -1.02041,1.0204 -1.02041,1.0204c0,0.51021 -0.5102,0.51021 -1.53061,1.02042c0,0 -0.31496,0.03883 -0.51021,0.51021c-0.27612,0.6666 -1.02041,0.51019 -1.53061,1.0204c-0.51021,0.51021 -0.54904,0.31497 -1.02041,0.51021c-0.66661,0.27611 -0.54904,1.33536 -1.02041,1.53061c-0.66661,0.27612 -0.5102,0.51021 -0.5102,0.51021c-0.51021,0.51019 -0.864,1.76469 -1.53062,2.04082c-0.47137,0.19525 -0.5102,0.51019 -1.02041,1.0204c-0.5102,0.51021 -1.02041,1.02042 -1.53061,1.02042c0,0 -0.14944,0.65962 -0.51021,1.0204c-0.36076,0.36076 -1.53061,0.51021 -1.53061,1.0204c0,0 -0.43507,0.08832 -1.02041,0.51021c-0.92551,0.66707 -0.65965,1.16985 -1.02041,1.53061c-0.36076,0.36076 -1.53061,0.51021 -2.04082,0.51021c-0.5102,0 -1.0204,0.51021 -1.53061,1.02042c-0.5102,0.51019 -0.51021,0.51019 -1.02041,0.51019c-1.02041,0 -1.95124,0.04996 -2.55102,1.02042c-0.26823,0.43401 -0.51021,0.51021 -1.02041,0.51021c-0.51021,0 -1.53062,0.51019 -2.04082,0.51019c0,0 -0.27612,0.35379 0,1.02042c0.19524,0.47136 0.5102,1.0204 1.02041,1.0204c0.5102,0 1.02041,0 1.02041,0c1.02041,0 1.53061,0 2.04081,0c0.51021,0 1.02041,0 1.53062,0c0.5102,0 0.5375,0.23444 1.53061,0c1.11034,-0.26212 0.65964,-1.16983 1.02041,-1.53061c0.36077,-0.36078 1.02041,-0.51021 1.02041,-0.51021c0.51021,0 0.75217,-0.5864 1.02041,-1.0204c0.59978,-0.97047 2.04082,-0.51021 2.04082,-1.02042c0,0 0.5102,-0.51019 1.53061,-0.51019c0.51021,0 0.04994,-0.93083 1.02041,-1.53062c0.43401,-0.26823 0.90319,-0.01364 1.02041,-0.51019c0.26212,-1.11034 0.51021,-1.02042 1.02041,-1.53062c0,0 1.16985,-0.14941 1.53062,-0.51019c0.36077,-0.36078 0.03883,-0.82518 0.5102,-1.02042c0.6666,-0.27611 1.16985,-0.65964 1.53061,-1.0204c0.36077,-0.36078 -0.1564,-1.2545 0.51021,-1.53061c0.47137,-0.19524 0.35379,-0.23409 1.02041,-0.51021c0.47137,-0.19525 0.5102,-0.51021 1.02041,-1.02042c0.5102,-0.51019 1.16985,-0.14943 1.53061,-0.51019c0.36077,-0.36078 0.54904,-0.82516 1.02041,-1.02042c0.66662,-0.27612 0.52386,-0.90318 1.02041,-1.0204c1.11034,-0.26212 1.53061,-1.02042 2.04082,-1.53061c0,0 0.5102,-0.51021 0.5102,-0.51021c1.02041,-0.51021 1.26239,-1.09662 1.53062,-1.53061c0.59978,-0.97047 2.30293,0.08992 2.04082,-1.02042c-0.11723,-0.49657 -2.04082,0.51021 -2.04082,0.51021c-1.02041,1.0204 -2.04082,1.0204 -2.55103,1.53061c-0.5102,0.51021 -1.16985,1.16985 -1.53061,1.53061c-0.36076,0.36076 -1.45547,1.10872 -2.04082,1.53061c-0.92551,0.66707 -1.65135,1.04913 -2.55102,1.53062c-1.62189,0.86801 -2.25452,1.74431 -3.06123,2.55101c-0.80671,0.8067 -1.17281,0.99417 -2.04082,1.53062c-0.97046,0.59978 -0.3538,1.76469 -1.02041,2.0408c-0.47137,0.19524 -0.75829,-0.08992 -1.02041,1.02042c-0.11722,0.49657 0,1.0204 0,1.0204c-0.5102,1.02042 -0.5102,1.53062 -0.5102,2.04082c0,0 -0.23409,0.35379 -0.51021,1.02042c-0.19525,0.47137 -0.5102,1.0204 -0.5102,1.0204c-0.51021,1.02042 -1.02041,1.02042 -1.02041,1.53061l0,0.51021" id="svg_7" fill-opacity="0" stroke-width="10" stroke="#000000" fill="none"/>
  <path d="m81.2653,146.28571c0,0.51021 0,1.02042 0,1.53061c0,0 0,0.51021 0,1.02042c0,0.51021 0,1.0204 0,1.0204c0,0.51021 0,1.02042 0,1.53061c0,0.51021 0,0.51021 0,1.02042c0,0.51021 -0.36077,1.16983 0,1.53061c0.36077,0.36078 0.51021,0.51021 1.02041,0.51021l0.51021,0.51021l0,0.51019l0,0" id="svg_8" fill-opacity="0" stroke-width="10" stroke="#000000" fill="none"/>
  <path d="m163.91837,94.7551c0.51019,0.51021 0.51019,1.02041 0.51019,1.02041c0.51021,0 0.82516,0.03883 1.02042,0.51021c0.27611,0.6666 1.0204,0.5102 1.0204,0.5102c0.51021,0.5102 0.864,0.74429 1.53061,1.02041c0.47137,0.19525 0.51021,0 1.02042,0c0.51021,0 1.0204,0 1.53061,0c0,0 0.65964,0.36077 1.02042,0c0.36078,-0.36077 0.19525,-1.05924 0,-1.53061c-0.27612,-0.66662 -1.02042,-1.02041 -1.02042,-1.53062c0,0 0.01364,-0.11723 0.51021,0c1.11032,0.26212 1.53061,0.5102 2.04082,1.02041c0.51019,0.5102 1.0204,0.51021 1.53061,1.02041c0,0 0.93083,0.04994 1.53061,1.02041c0.53645,0.86801 0.51021,1.02041 0.51021,1.53061c0,0.51021 0.23409,0.3538 0.51021,1.02041c0.19525,0.47137 0.24809,0.42029 0.51019,1.53062c0.11722,0.49655 0,1.02041 0,1.02041c0,0.5102 0,1.02041 0,1.53061c0,0.5102 0,0.5102 0,1.02041c0,0.5102 0,1.02041 0,1.53061c0,0 0,0.51021 0,1.02041c0,0.51021 0,1.02041 0,1.02041c0,0.51021 0,1.02041 0,1.53062c0,0.5102 -0.47137,0.82516 0,1.02041c0.66663,0.27612 0.51021,-1.02041 1.02042,-2.55103c0,0 -0.11722,-0.52385 0,-1.02041c0.26212,-1.11034 0.51021,-1.02041 0.51021,-1.53061c0,-0.51021 0,-1.53062 0,-1.53062c0,-0.5102 0,-1.0204 0,-1.53061c0,-0.5102 0,-0.5102 0,-1.02041c0,-0.5102 0.51019,-1.02041 0,-1.02041c-0.51021,0 -2.2749,0.3538 -2.55103,1.02041c-0.19525,0.47137 -1.10872,0.94527 -1.53061,1.53062c-0.66705,0.92551 -0.59853,1.45547 -1.02042,2.04081c-0.66707,0.92551 -1.26849,1.95089 -1.53061,3.06123c-0.11722,0.49656 0,1.02041 -0.51021,2.04082c0,0 0,1.02041 0,1.53061c0,0.51021 -0.23409,0.35381 -0.51019,1.02041c-0.19525,0.47137 -0.74429,0.864 -1.02042,1.53062c-0.19525,0.47137 0.3905,1.09808 0,2.04082c-0.27612,0.66661 -0.51021,1.53061 -0.51021,2.04082c0,0 0,0.5102 0,1.0204c0,0.51021 0,-0.5102 0,-1.0204c0,-1.02041 0,-2.04082 0,-3.06123c0,-1.02041 0,-1.02041 0,-2.04082c0,-1.02041 0,-1.02041 0,-1.53062c0,-0.5102 0,-1.53061 0,-2.04081c0,-0.51021 0,-1.53062 0,-2.04082c0,-1.53062 0,-1.53062 0,-2.04082c0,-0.51021 0.08173,-1.5372 0,-2.04082c-0.25844,-1.59257 -0.93867,-1.5372 -1.0204,-2.04082c-0.25844,-1.59258 -0.51021,-2.04082 -1.02042,-2.04082c-1.0204,0 -1.0204,0.51021 -1.53061,0.51021c0,0 -0.51021,1.02041 -1.0204,1.53061c-0.51021,0.51021 0.21133,0.80908 -0.51021,1.53062c-0.36078,0.36077 -0.51021,0.5102 -1.0204,1.0204c0,0 -0.51021,1.53062 -1.02042,2.04082c0,0 0,0.51021 0,1.02041c0,0.51021 -0.14943,0.65964 -0.51021,1.02041c-0.36078,0.36077 0,1.02041 0,1.53062c0,0.5102 0,0.5102 0,1.02041c0,0.5102 0,1.0204 0,1.53061c0,0.5102 0,1.02041 0,2.04082c0,0.5102 0,1.02041 0,1.53061c0,0.51021 0,0.51021 -0.51019,1.02041c-0.51021,0.51021 -0.65964,1.16985 -1.02042,1.53062c-0.36078,0.36077 -0.54904,0.31496 -1.0204,0.5102c-0.66661,0.27612 -0.86401,1.25449 -1.53062,1.53061c-0.94273,0.39049 -0.93048,1.2685 -2.0408,1.53062c-0.49657,0.11723 -1.02042,0.5102 -1.02042,0.5102c-1.0204,0.51021 -1.54425,0.90318 -2.04082,1.02041c-1.11032,0.26212 -1.03404,0.90319 -1.53061,1.02041c-1.11034,0.26212 -1.53061,0.51021 -1.02042,0.51021c0.51021,0 1.02042,0 1.53062,0c0.51019,0 1.05923,0.19525 1.53061,0c0.66663,-0.27612 1.0204,-0.51021 1.53061,-0.51021c0.51021,0 1.02042,0 1.02042,0c1.0204,-1.02041 2.0408,-1.0204 3.06122,-1.53061c1.0204,-0.5102 2.04082,-0.51021 3.06122,-1.02041c0,0 0,-0.5102 1.02042,-1.02041c1.0204,-0.5102 1.53061,-0.5102 1.53061,-1.02041c0,-0.51021 -0.51021,0.5102 -1.53061,0.5102c-0.51021,0 -1.06044,-0.10722 -2.55103,0.51021c-1.054,0.43658 -1.53061,1.0204 -2.55103,1.53061c-1.0204,0.5102 -1.95088,0.75829 -3.06122,1.02041c-0.49657,0.11722 -0.54904,0.31496 -1.0204,0.51021c-0.66661,0.27612 -1.02042,0.51021 -2.04082,1.02041c-1.02042,0.51021 -1.45547,0.59852 -2.04082,1.02041c-0.92551,0.66708 -2.04082,-0.00001 -2.04082,0.5102c0,0.51021 1.0204,0 1.53061,0c0.51021,0 0.51021,0 1.53061,0c0.51021,0 1.02042,0 1.53061,0c0.51021,0 1.02042,0 1.53062,0c0,0 1.0204,-0.5102 1.53061,-0.5102c1.0204,0 1.37421,-0.74429 2.04082,-1.02041c0.47136,-0.19524 1.53061,0 1.53061,-0.51021c0,-0.51021 -1.02042,0 -1.53061,0c-0.51021,0 -1.02042,0 -1.53061,0c-1.53062,0 -2.04082,0 -2.04082,0c-1.53062,0.51021 -2.04082,0.51021 -2.55103,0.51021c-0.51021,0 -1.02042,0 -1.53061,0c0,0 -0.51021,0 -1.02042,0c-0.51019,0 -1.0204,0 -1.0204,0c-0.51021,0 -1.02042,0 -1.53061,0c-0.51021,0 0,0 0.51019,0c1.02042,0 1.53062,0 2.04082,0c1.02042,0 1.02042,0 1.53061,0c0.51021,0 1.02042,0 1.53062,0c0.51019,0 1.0204,0 1.53061,0c0.51021,0 1.0204,-0.51021 1.53061,-0.51021c0.51021,0 1.02042,0 1.53061,0c1.53061,0 3.32335,0.08994 3.06123,-1.02041c-0.11722,-0.49656 -0.65964,0.14944 -1.02042,0.51021c-0.36078,0.36077 -1.53061,0.5102 -2.04082,0.5102c-0.51019,0 -1.53061,0 -2.04082,0c-1.0204,0 -2.04082,0 -3.06122,0c-1.53061,0 -1.53061,0 -2.55103,0c-0.51019,0 -1.0204,0 -1.0204,0c-0.51021,0 -1.02042,0 -1.53061,0c-0.51021,0 -0.51021,0 -0.51021,0c0.51021,0 1.53061,0 2.55103,0c0.51019,0 1.53061,0 1.53061,0c0.51019,0 1.0204,0 1.53061,0c0.51021,0 1.0204,0 2.55103,0c1.0204,0 2.04082,0 2.04082,0c1.0204,0 1.42703,-0.13087 2.0408,-0.5102c1.37245,-0.84823 2.04741,-0.93868 2.55103,-1.02041c1.59258,-0.25844 1.53061,-0.51021 2.04082,-0.51021c0.51021,0 -0.46063,0.1144 -1.53061,0.51021c-1.97296,0.72985 -3.06123,0.5102 -4.59184,1.02041c-1.53061,0.5102 -3.06122,0.51021 -4.59183,1.02041c-1.53062,0.51021 -2.04082,0.5102 -2.55103,0.5102c-0.51021,0 -1.53061,0 -1.53061,0c-0.51021,0 -1.02042,0 -1.53061,0c-0.51021,0 -0.51021,0 -1.02042,0c-0.51021,0 0,0 0.51021,0c2.04082,0 3.57143,0 5.10204,-0.5102c1.53061,-0.51021 2.04082,-0.51021 3.06123,-0.51021c0,0 0.51019,0 1.53061,0c0.51021,0 0.51021,0 1.53061,0c0.51021,0 0.93048,-0.75829 2.04082,-1.02041c0.49657,-0.11722 0.65964,-0.14944 1.0204,-0.5102c0.36078,-0.36077 1.09808,0.39049 2.04082,0c0.66663,-0.27612 1.93724,-0.64108 2.55103,-1.02041c1.37245,-0.84821 2.97165,-0.56015 3.57143,-1.53062c0.26823,-0.43401 0.51021,-0.5102 1.02042,-1.02041c0.51019,-0.5102 0.65964,-0.65964 1.0204,-1.0204c0.36078,-0.36077 0.54904,-0.31496 1.02042,-0.51021c0.6666,-0.27612 1.53059,-1.53061 1.0204,-1.53061c-0.51019,0 -0.31496,1.56944 -0.51021,2.04082c-0.27611,0.6666 -0.864,1.76469 -1.53061,2.04081c-0.47137,0.19524 -0.864,0.74429 -1.53061,1.02041c-0.47137,0.19524 -0.35381,0.74429 -1.02042,1.02041c-0.47136,0.19524 -1.25449,-0.15641 -1.53061,0.51021c-0.19525,0.47137 0,0.5102 -0.51021,1.02041c-0.51019,0.5102 -0.5864,0.24197 -1.0204,0.5102c-0.97047,0.59978 -0.54904,1.33537 -1.0204,1.53062c-0.66661,0.27612 -0.864,0.74429 -1.53062,1.02041c-0.47136,0.19524 -0.51019,0.51019 -1.0204,1.0204c-0.51021,0.51021 0.03883,0.31496 0.51021,0.51021c0.66661,0.27612 1.56944,0.31496 2.04082,0.51021c0.6666,0.27611 1.0204,0.51019 1.53061,0.51019c0.51019,0 1.05923,0.31496 1.53061,0.51021c0.66663,0.27612 1.05923,0.31496 1.53061,0.51021c0.66663,0.27612 0.65964,1.68004 1.02042,2.04082c0.36076,0.36076 0.62991,0.07767 1.0204,1.0204c0.27612,0.66663 1.02042,1.02042 1.02042,1.02042c0.51019,1.0204 0.51019,1.53061 1.0204,2.04082c0,0 0.31496,0.54903 0.51021,1.0204c0.27611,0.66661 1.16983,0.65964 1.53061,1.02042c0.72153,0.72153 0.31496,1.05923 0.51021,1.53061c0.27611,0.66661 1.25449,0.35379 1.53061,1.0204c0.19525,0.47137 0.14943,0.65964 0.51021,1.02042c0.36076,0.36076 0.59851,0.43506 1.0204,1.0204c0.66707,0.92551 0.58641,1.26237 1.02042,1.53061c0.97046,0.59979 0.51019,1.53062 1.0204,1.53062c0.51021,0 0.54904,0.31496 1.0204,0.51019c0.66663,0.27612 1.02042,0.51021 1.53062,0.51021c0,0 0,0.51021 0.51019,0.51021c0.51021,0 1.02042,0 1.53062,0c0,0 0.93082,-0.46027 1.53061,0.51021c0.26822,0.43399 0.51021,0.51019 0.51021,0.51019c0.51019,0 1.0204,0 1.53061,0c0.51019,0 0.51019,0 0.51019,0c0.51021,0 1.05925,-0.19525 1.53062,0c0.66661,0.27612 0.51019,0.51021 1.0204,0.51021c0.51021,0 0.51021,0.29887 0.51021,1.0204c0,0.72154 1.0204,0.51021 1.0204,0.51021c-0.51019,0 -0.42027,0.7583 -1.53061,1.02042c-0.49657,0.11722 -0.51021,0 -1.53061,0c-0.51021,0 -1.02042,0 -1.53061,0c-0.51021,0 -1.02042,0 -1.53061,0c0,0 -0.51021,0 -1.53062,0c-0.51019,0 -0.58786,-0.11971 -1.53061,-0.51021c-0.66663,-0.27612 -1.0204,-0.51021 -1.53061,-0.51021c-0.51021,0 -1.02042,0 -1.53061,0c-0.51021,0 -0.864,-0.23409 -1.53061,-0.51021c-0.47137,-0.19525 -0.54904,0.19525 -1.02042,0c-0.66661,-0.27611 -0.51019,-1.0204 -1.0204,-1.53061c-0.51021,-0.51021 0,-1.0204 0,-2.04082l1.53061,-2.04082l1.0204,-2.55101" id="svg_9" fill-opacity="0" stroke-width="10" stroke="#000000" fill="none"/>
  <path d="m177.69386,115.16326c0,0 0,0.5102 0,1.02041c0,0.5102 0,1.02041 0,1.02041c0,0.5102 0,1.02041 0,1.53061c0,0.51021 0,0.51021 0,1.02041c0,0.5102 -0.51019,0.5102 -1.0204,0.5102c0,0 -1.53061,0 -3.06123,0c-2.55101,0 -5.01212,-0.75829 -6.12244,-1.0204c-0.99312,-0.23444 -2.70045,-0.65964 -3.06123,-1.02041c-0.36078,-0.36077 -1.0204,-1.02041 -1.53061,-1.02041c-1.0204,0 -1.53061,-0.51021 -2.04082,-1.02041c-0.51021,-0.51021 -0.31497,-0.54904 -0.51021,-1.02041c-0.27611,-0.66661 -1.25449,-0.3538 -1.53061,-1.02041c-0.19525,-0.47137 -0.14943,-0.65964 -0.51021,-1.02041c-0.36078,-0.36077 0,-1.02041 0,-1.53061c0,-0.51021 0,-0.51021 0,-1.02041c0,-0.51021 0,-1.02041 0,-1.53062c0,-1.02041 0,-1.53061 0,-2.55102c0,-1.02041 0,-1.53062 0.51021,-2.04082c0.51021,-0.5102 0.51021,-1.0204 1.02042,-1.53061c0.51019,-0.5102 0.51019,-1.02041 1.0204,-2.04082c0,0 0.31496,-1.05925 0.51021,-1.53062c0.27612,-0.66661 0.39299,-0.52385 0.51021,-1.02041c0.2621,-1.11033 0.51019,-1.53061 0.51019,-1.53061c0,0 0,-0.5102 0,-1.02041c0,-0.5102 0,-1.02041 0.51021,-1.53061l0.51021,-0.51021l0.51021,0l0.51019,0" id="svg_10" fill-opacity="0" stroke-width="10" stroke="#000000" fill="none"/>
  <rect id="svg_11" height="4.33333" width="2.66667" y="168.33333" x="177" fill-opacity="0" stroke-width="10" stroke="#000000" fill="none"/>
  <rect id="svg_12" height="1.66667" width="0.33333" y="169" x="178.33333" fill-opacity="0" stroke-width="10" stroke="#000000" fill="none"/>
 </g>
</svg>